<?xml version="1.0" encoding="utf-8"?>
<!-- Generator: Adobe Illustrator 18.1.1, SVG Export Plug-In . SVG Version: 6.00 Build 0)  -->
<!DOCTYPE svg PUBLIC "-//W3C//DTD SVG 1.1//EN" "http://www.w3.org/Graphics/SVG/1.1/DTD/svg11.dtd">
<svg version="1.1" id="Layer_1" xmlns="http://www.w3.org/2000/svg" xmlns:xlink="http://www.w3.org/1999/xlink" x="0px" y="0px"
	 viewBox="0 570 612 201" enable-background="new 0 570 612 201" xml:space="preserve">
<g>
	<path fill="#313131" d="M207.8,696.7v-38.2h-7.4v-6h7.4V649c0-9.1,4.8-14.3,12.8-14.3c3.4,0,6.5,0.7,9.4,3.4l-2.8,4.5
		c-1.5-1.3-3.1-2.3-5.4-2.3c-4.5,0-7,3.1-7,8.7v3.4h9.1v6h-9.2v38.2H207.8L207.8,696.7z"/>
	<path fill="#313131" d="M273.8,691l3.6-4.8c3,3.4,8.5,6.4,14.5,6.4c6.8,0,10.4-3.1,10.4-7.5c0-10.8-27.2-4.1-27.2-20.6
		c0-6.8,6-12.8,16.3-12.8c7.5,0,12.8,2.8,16.3,6.4l-3.1,4.7c-2.7-3.1-7.5-5.7-13.2-5.7c-6,0-9.8,3-9.8,7c0,9.8,27.2,3.1,27.2,20.6
		c0,7.4-6,13.3-17.3,13.3C284.5,697.9,278.3,695.7,273.8,691z"/>
	<path fill="#313131" d="M314.6,641.5c0-2.7,2.1-4.7,4.5-4.7c2.7,0,4.7,2.1,4.7,4.7s-2.1,4.5-4.7,4.5
		C316.7,646.3,314.6,644.3,314.6,641.5z M315.9,696.7v-44.2h6.8v44.2H315.9z"/>
	<path fill="#313131" d="M329.5,674.6c0-12.8,8.5-23.1,21.8-23.1c13.3,0,21.8,10.4,21.8,23.1c0,12.8-8.5,23.1-21.8,23.1
		C338,697.9,329.5,687.3,329.5,674.6z M366,674.6c0-9.1-5.3-16.9-14.6-16.9s-14.6,8.1-14.6,16.9c0,9.1,5.3,17.2,14.6,17.2
		S366,683.6,366,674.6z"/>
	<path fill="#313131" d="M429.5,689.9v23.5h-6.8v-61h6.8v6.5c3.1-4.5,8.7-7.7,14.9-7.7c11.6,0,19.6,8.8,19.6,23.1
		c0,14.3-8.1,23.1-19.6,23.1C438.4,697.9,433.2,695.1,429.5,689.9z M456.9,674.6c0-9.8-5.3-16.9-14.2-16.9c-5.4,0-10.8,3.1-13.2,7
		v20c2.4,3.8,7.7,7.1,13.2,7.1C451.6,691.7,456.9,684.3,456.9,674.6z"/>
	<path fill="#313131" d="M469.8,641.5c0-2.7,2.1-4.7,4.5-4.7c2.7,0,4.7,2.1,4.7,4.7s-2.1,4.5-4.7,4.5
		C471.9,646.3,469.8,644.3,469.8,641.5z M470.9,696.7v-44.2h6.8v44.2H470.9z"/>
	<path fill="#313131" d="M491.5,689.9v23.5h-6.8v-61h6.8v6.5c3.1-4.5,8.7-7.7,14.9-7.7c11.6,0,19.6,8.8,19.6,23.1
		c0,14.3-8.1,23.1-19.6,23.1C500.3,697.9,495.1,695.1,491.5,689.9z M518.7,674.6c0-9.8-5.3-16.9-14.2-16.9c-5.4,0-10.8,3.1-13.2,7
		v20c2.4,3.8,7.7,7.1,13.2,7.1C513.5,691.7,518.7,684.3,518.7,674.6z"/>
	<path fill="#313131" d="M530.8,674.6c0-12.8,9.2-23.1,21.8-23.1c13.3,0,21.3,10.4,21.3,23.7v1.7h-35.7c0.6,8.2,6.4,15.2,16,15.2
		c5.1,0,10.2-2.1,13.6-5.7l3.1,4.5c-4.4,4.4-10.4,6.8-17.5,6.8C540.3,697.9,530.8,688.5,530.8,674.6z M552.5,657.1
		c-9.4,0-14.2,7.9-14.5,14.6h28.9C567,665.2,562.4,657.1,552.5,657.1z"/>
	<g>
		<path fill="#313131" d="M230.5,680.2v-27.7h7V680c0,7.4,3.1,12.5,11.5,12.5s11.5-4.8,11.5-12.5v-27.5h7v27.7
			c0,11.3-6.2,18.4-18.4,18.4C236.7,698.7,230.5,691.2,230.5,680.2z"/>
	</g>
	<g>
		<path fill="#313131" d="M416,669.1v27.7h-7v-27.5c0-7.4-3.1-12.5-11.5-12.5s-11.5,4.8-11.5,12.5v27.5h-7v-27.7
			c0-11.3,6.2-18.4,18.4-18.4C410.1,650.7,416,657.9,416,669.1z"/>
	</g>
</g>
<g>
	
		<linearGradient id="SVGID_1_" gradientUnits="userSpaceOnUse" x1="53.4958" y1="999.5562" x2="53.4958" y2="1045.8127" gradientTransform="matrix(2.0859 0 0 -2.0859 -11.1491 2782.8428)">
		<stop  offset="0" style="stop-color:#044EE8"/>
		<stop  offset="0.645" style="stop-color:#119DFF"/>
		<stop  offset="1" style="stop-color:#119DFF"/>
	</linearGradient>
	<path fill="url(#SVGID_1_)" d="M154.3,648.9l-37.6-21.7l-38.7-22.4c-16.9-9.8-40,2.1-39.9,22.6c1-7.9,11.5-20.3,31.1-15.9
		c21.4,5.1,35,31.6,39.9,48.8c4,13.8,4.5,26.4,4.1,37.3c14.9,0.6,31.2-2.4,41-12.9c11.5-12.2,9.4-23.1,6-29.9
		C158.5,651.8,155.2,649.7,154.3,648.9z"/>
	
		<linearGradient id="SVGID_2_" gradientUnits="userSpaceOnUse" x1="-1708.6777" y1="2949.5059" x2="-1708.6777" y2="2995.7627" gradientTransform="matrix(-1.043 -1.8064 -1.8064 1.043 3653.1277 -5511.2983)">
		<stop  offset="0" style="stop-color:#044EE8"/>
		<stop  offset="0.645" style="stop-color:#119DFF"/>
		<stop  offset="1" style="stop-color:#119DFF"/>
	</linearGradient>
	<path fill="url(#SVGID_2_)" d="M38,628.9v43.8v44.8c0,19.6,21.8,33.6,39.6,23.4c-7.4,3.1-23.4,0.2-29.2-19
		c-6.5-21.1,9.8-46.1,22.1-58.9c9.9-10.4,20.6-17.2,30.2-22.1c-7-13.2-17.7-25.8-31.8-29.2c-16.3-3.8-24.8,3.4-28.9,9.8
		C38.2,624.3,38,627.6,38,628.9z"/>
	
		<linearGradient id="SVGID_3_" gradientUnits="userSpaceOnUse" x1="860.9391" y1="3500.5388" x2="860.9391" y2="3546.792" gradientTransform="matrix(-1.043 1.8064 1.8064 1.043 -5361.8843 -4537.6211)">
		<stop  offset="0" style="stop-color:#044EE8"/>
		<stop  offset="0.645" style="stop-color:#119DFF"/>
		<stop  offset="1" style="stop-color:#119DFF"/>
	</linearGradient>
	<path fill="url(#SVGID_3_)" d="M78.5,740.2l38-22l38.7-22.4c16.9-9.8,18-35.9,0.2-46.1c6.4,4.7,12.1,20.3-1.7,35
		c-15,16-44.8,14.5-62.1,10.2c-13.9-3.6-25-9.2-34.5-15.2c-7.9,12.6-13.6,28.2-9.2,42.1c4.8,16,15.2,19.7,23,20.3
		C74.8,742,77,740.8,78.5,740.2z"/>
</g>
</svg>
