<?xml version="1.0" encoding="utf-8"?>
<!-- Generator: Adobe Illustrator 19.2.0, SVG Export Plug-In . SVG Version: 6.00 Build 0)  -->
<svg version="1.1" id="Layer_1" xmlns="http://www.w3.org/2000/svg" xmlns:xlink="http://www.w3.org/1999/xlink" x="0px" y="0px"
	 viewBox="0 0 323.9 330.5" style="enable-background:new 0 0 323.9 330.5;" xml:space="preserve">
<style type="text/css">
	.st0{fill:#939598;}
	.st1{fill:none;}
</style>
<g>
	<path class="st0" d="M40.5,249l1.6,2l-6.2,5l6.2,7.7l6.2-5l1.6,2l-14.9,11.9l-1.6-2l6.8-5.5l-6.2-7.7l-6.8,5.5l-1.6-2L40.5,249z"/>
	<path class="st0" d="M61,271.9l1.7,1.6l-6.8,19.7l-2.2-2l1.8-4.8l-6.7-6.1l-4.6,2.2l-2.2-2L61,271.9z M56.3,284l3.3-8.9l0,0
		l-8.6,4.1L56.3,284z"/>
	<path class="st0" d="M74.7,283.2l5.6,3.7c1,0.7,1.8,1.4,2.2,2.1c0.5,0.7,0.8,1.4,0.9,2.1c0.1,0.7,0,1.3-0.2,2
		c-0.2,0.6-0.5,1.2-0.8,1.7c-0.3,0.5-0.7,1-1.2,1.4c-0.5,0.4-1.1,0.7-1.8,0.9c-0.7,0.2-1.4,0.2-2.3,0c-0.8-0.2-1.8-0.6-2.8-1.3
		l-3.4-2.3l-4.7,7l-2.2-1.4L74.7,283.2z M72.2,291.6l2.8,1.9c0.4,0.3,0.9,0.5,1.3,0.7c0.5,0.2,0.9,0.3,1.3,0.4
		c0.4,0,0.9-0.1,1.3-0.3c0.4-0.2,0.8-0.6,1.2-1.1c0.4-0.5,0.6-1,0.6-1.5s-0.1-0.9-0.3-1.3c-0.2-0.4-0.5-0.8-0.9-1.1
		c-0.4-0.3-0.8-0.7-1.2-0.9l-2.8-1.9L72.2,291.6z"/>
	<path class="st0" d="M92.4,294.2l6.1,2.9c1.1,0.5,1.9,1.1,2.5,1.8c0.6,0.6,1,1.3,1.1,2s0.2,1.3,0.1,2c-0.1,0.7-0.3,1.2-0.6,1.8
		c-0.3,0.5-0.6,1.1-1,1.6s-1,0.9-1.6,1.1c-0.6,0.3-1.4,0.4-2.2,0.3c-0.9,0-1.8-0.3-2.9-0.9l-3.7-1.8l-3.6,7.6l-2.3-1.1L92.4,294.2z
		 M91.1,302.9l3.1,1.5c0.5,0.2,0.9,0.4,1.4,0.5c0.5,0.1,0.9,0.2,1.4,0.2c0.4,0,0.9-0.2,1.2-0.4c0.4-0.3,0.7-0.7,1-1.3
		c0.3-0.6,0.4-1.1,0.4-1.6c0-0.5-0.2-0.9-0.4-1.2c-0.3-0.4-0.6-0.7-1-1c-0.4-0.3-0.8-0.5-1.3-0.8l-3.1-1.5L91.1,302.9z"/>
	<path class="st0" d="M112.5,314.4l-3.6-12.6l3.2,1l2.4,9.6l7.6-6.4l3,0.9l-10.2,8.3l-2.5,7.8l-2.5-0.8L112.5,314.4z"/>
	<path class="st0" d="M144.5,310.4l2.6,0.2l-0.5,7.9l9.9,0.6l0.5-7.9l2.6,0.2l-1.2,19.1l-2.6-0.2l0.6-8.7l-9.9-0.6l-0.6,8.7
		l-2.6-0.2L144.5,310.4z"/>
	<path class="st0" d="M179.9,329.9c-1.5,0.2-2.8,0-4.1-0.3c-1.3-0.4-2.4-1-3.4-1.8c-1-0.8-1.8-1.8-2.4-3s-1-2.5-1.2-3.9
		c-0.1-1.4,0-2.8,0.3-4c0.4-1.3,0.9-2.4,1.7-3.4s1.7-1.8,2.9-2.4c1.2-0.6,2.5-1,3.9-1.2c1.5-0.2,2.8,0,4.1,0.3
		c1.3,0.4,2.4,1,3.4,1.8c1,0.8,1.8,1.8,2.4,3c0.6,1.2,1,2.5,1.2,3.9c0.1,1.4,0,2.8-0.3,4c-0.4,1.3-0.9,2.4-1.7,3.4s-1.7,1.8-2.9,2.4
		C182.7,329.3,181.4,329.7,179.9,329.9z M179.7,327.4c1.1-0.1,2.1-0.4,2.9-0.9c0.8-0.5,1.5-1.1,2.1-1.9c0.6-0.7,1-1.6,1.2-2.6
		s0.3-2,0.2-3c-0.1-1-0.4-2-0.8-2.9c-0.4-0.9-1-1.6-1.7-2.2c-0.7-0.6-1.5-1.1-2.4-1.4c-0.9-0.3-1.9-0.4-3-0.3s-2.1,0.4-2.9,0.9
		c-0.8,0.5-1.5,1.1-2.1,1.9c-0.6,0.7-1,1.6-1.2,2.6s-0.3,2-0.2,3c0.1,1,0.4,2,0.8,2.9c0.4,0.9,1,1.6,1.7,2.2s1.5,1.1,2.4,1.4
		C177.6,327.5,178.6,327.6,179.7,327.4z"/>
	<path class="st0" d="M196.1,307.4l2.5-0.7l4.3,16.1l8.5-2.3l0.6,2.3l-11,2.9L196.1,307.4z"/>
	<path class="st0" d="M214.3,301.8l2.4-0.9l6.9,17.8l-2.4,0.9L214.3,301.8z"/>
	<path class="st0" d="M225.4,297.3l5.9-3.2c1.2-0.6,2.3-1.1,3.3-1.3c1-0.2,2-0.3,2.9-0.2c0.9,0.1,1.7,0.3,2.5,0.7s1.4,0.8,2,1.3
		s1.1,1,1.5,1.6c0.4,0.6,0.8,1.1,1.1,1.6c0.6,1.1,0.9,2.2,1.1,3.4c0.1,1.2,0,2.4-0.3,3.6s-1,2.4-1.9,3.4s-2.1,2-3.6,2.9l-5.5,3
		L225.4,297.3z M235.6,310.8l2.9-1.5c1-0.5,1.8-1.1,2.5-1.9c0.7-0.7,1.3-1.5,1.6-2.4c0.4-0.9,0.5-1.8,0.5-2.8s-0.3-2-0.9-3.1
		c-0.3-0.5-0.7-1.1-1.3-1.8c-0.6-0.6-1.3-1.1-2.1-1.5c-0.8-0.4-1.8-0.6-2.9-0.6c-1.1,0-2.3,0.4-3.7,1.1l-3.4,1.8L235.6,310.8z"/>
	<path class="st0" d="M251.9,281.1l1.9-1.4l18.1,10.2l-2.4,1.8l-4.4-2.6l-7.2,5.5l1.4,4.9l-2.4,1.8L251.9,281.1z M263,287.8
		l-8.2-4.8l0,0l2.5,9.2L263,287.8z"/>
	<path class="st0" d="M275.1,275.4l-12.9-2.5l2.3-2.4l9.6,2.2L272,263l2.2-2.2l2.7,12.9l5.8,5.7l-1.8,1.8L275.1,275.4z"/>
	<path class="st0" d="M291.1,263.8c0.8,0,1.6-0.1,2.3-0.5s1.3-0.9,1.7-1.5c0.3-0.3,0.5-0.7,0.6-1.2c0.2-0.4,0.2-0.9,0.2-1.3
		c0-0.5-0.1-0.9-0.3-1.3c-0.2-0.4-0.5-0.8-0.9-1.1c-0.6-0.4-1.2-0.6-1.8-0.4c-0.6,0.1-1.2,0.4-1.8,0.8c-0.6,0.4-1.3,0.9-2,1.4
		c-0.7,0.5-1.4,0.9-2.2,1.2c-0.8,0.3-1.6,0.4-2.4,0.4c-0.9-0.1-1.8-0.5-2.8-1.2c-0.4-0.3-0.8-0.8-1.2-1.4c-0.4-0.6-0.6-1.2-0.7-2
		c-0.1-0.7-0.1-1.5,0.2-2.4c0.2-0.9,0.7-1.8,1.3-2.7c0.6-0.8,1.3-1.6,2.1-2.1c0.8-0.6,1.8-0.9,2.9-1l0.3,2.8c-0.6,0-1.2,0.1-1.8,0.4
		s-1.1,0.7-1.6,1.3c-0.4,0.6-0.7,1.1-0.8,1.6c-0.1,0.5-0.2,0.9-0.1,1.4c0.1,0.4,0.2,0.8,0.4,1.1c0.2,0.3,0.4,0.5,0.7,0.7
		c0.6,0.5,1.3,0.7,1.9,0.6s1.3-0.4,1.9-0.8c0.6-0.4,1.3-0.9,1.9-1.4s1.4-1,2.1-1.3c0.7-0.3,1.5-0.5,2.3-0.5c0.8,0,1.7,0.4,2.6,1.1
		c0.7,0.5,1.3,1.2,1.7,1.9c0.4,0.7,0.6,1.5,0.6,2.3c0,0.8-0.1,1.6-0.3,2.4s-0.7,1.6-1.2,2.3c-0.7,1-1.6,1.8-2.6,2.4
		c-1,0.6-2.1,0.9-3.2,0.9L291.1,263.8z"/>
</g>
<g id="Snowman">
	<g>
		<path class="st0" d="M161,285.5c-32.9,0-59.7-26.8-59.7-59.7c0-32.9,26.8-59.7,59.7-59.7s59.7,26.8,59.7,59.7
			C220.7,258.7,193.9,285.5,161,285.5z M161,169c-31.3,0-56.8,25.5-56.8,56.8s25.5,56.8,56.8,56.8s56.8-25.5,56.8-56.8
			S192.3,169,161,169z"/>
	</g>
	<g>
		<path class="st0" d="M161,205.3c-3.5,0-6.3-2.8-6.3-6.3s2.8-6.3,6.3-6.3s6.3,2.8,6.3,6.3S164.5,205.3,161,205.3z M161,195.8
			c-1.8,0-3.3,1.5-3.3,3.3s1.5,3.3,3.3,3.3c1.8,0,3.3-1.5,3.3-3.3S162.8,195.8,161,195.8z"/>
	</g>
	<g>
		<path class="st0" d="M161,232c-3.5,0-6.3-2.8-6.3-6.3c0-3.5,2.8-6.3,6.3-6.3s6.3,2.8,6.3,6.3C167.3,229.2,164.5,232,161,232z
			 M161,222.4c-1.8,0-3.3,1.5-3.3,3.3s1.5,3.3,3.3,3.3c1.8,0,3.3-1.5,3.3-3.3S162.8,222.4,161,222.4z"/>
	</g>
	<g>
		<path class="st0" d="M161,258.9c-3.5,0-6.3-2.8-6.3-6.3s2.8-6.3,6.3-6.3s6.3,2.8,6.3,6.3S164.5,258.9,161,258.9z M161,249.3
			c-1.8,0-3.3,1.5-3.3,3.3s1.5,3.3,3.3,3.3c1.8,0,3.3-1.5,3.3-3.3S162.8,249.3,161,249.3z"/>
	</g>
	<g>
		<g>
			<path class="st0" d="M147.6,127.1c-2.4,0-4.4-2-4.4-4.4c0-2.4,2-4.4,4.4-4.4s4.4,2,4.4,4.4C152.1,125.1,150.1,127.1,147.6,127.1z
				 M147.6,120.3c-1.3,0-2.3,1.1-2.3,2.3s1.1,2.3,2.3,2.3c1.3,0,2.3-1.1,2.3-2.3S148.9,120.3,147.6,120.3z"/>
		</g>
		<g>
			<path class="st0" d="M173.7,127.1c-2.4,0-4.4-2-4.4-4.4c0-2.4,2-4.4,4.4-4.4s4.4,2,4.4,4.4C178.2,125.1,176.2,127.1,173.7,127.1z
				 M173.7,120.3c-1.3,0-2.3,1.1-2.3,2.3s1.1,2.3,2.3,2.3c1.3,0,2.3-1.1,2.3-2.3S175,120.3,173.7,120.3z"/>
		</g>
	</g>
	<g>
		<polygon class="st0" points="159.1,131.7 159.1,139.6 136.2,135.7 		"/>
	</g>
	<g>
		<rect x="151.4" y="146.8" class="st0" width="18.9" height="3"/>
	</g>
	<path class="st0" d="M235.7,156l-2.8,1c0.4,1,0.5,2,0.3,3.1c-0.2,1.8-1.1,3.4-2.6,4.6c-1.4,1.1-3.2,1.6-5.1,1.4
		c-0.3,0-0.5-0.1-0.7-0.1l6.7-14.3l-2.7-1.3l-6.7,14.2c-1.8-1.4-2.9-3.7-2.6-6.2c0.3-2.6,2-4.8,4.5-5.6l-1-2.8
		c-3.5,1.3-6,4.4-6.4,8.1c-0.5,3.8,1.3,7.3,4.3,9.3l-12.3,26.2l2.7,1.3l12.3-26.2c0.5,0.2,1.1,0.3,1.7,0.4c0.4,0,0.8,0.1,1.2,0.1
		c2.2,0,4.3-0.7,6.1-2.1c2.1-1.6,3.4-4,3.7-6.6C236.4,158.9,236.2,157.4,235.7,156z"/>
	<path class="st0" d="M113.6,193.6l-12.3-26.2c0.8-0.6,1.6-1.3,2.2-2.1c1.6-2.1,2.3-4.6,2-7.2c-0.4-3.7-2.9-6.8-6.4-8.1l-1,2.8
		c2.5,0.9,4.2,3.1,4.5,5.6c0.2,1.8-0.3,3.6-1.4,5.1c-0.3,0.4-0.7,0.8-1.2,1.2l-6.7-14.2l-2.7,1.3l6.7,14.3c-0.2,0.1-0.5,0.1-0.7,0.1
		c-1.8,0.2-3.6-0.3-5.1-1.4s-2.4-2.8-2.6-4.6c-0.1-1.1,0-2.1,0.3-3.1l-2.8-1c-0.5,1.4-0.7,2.9-0.5,4.5c0.3,2.6,1.6,4.9,3.7,6.6
		c1.8,1.4,3.9,2.1,6.1,2.1c0.4,0,0.8,0,1.2-0.1c0.6-0.1,1.1-0.2,1.7-0.4l12.3,26.2L113.6,193.6z"/>
	<g>
		<path class="st1" d="M128.2,132.3c0,18.1,14.7,32.8,32.8,32.8s32.8-14.7,32.8-32.8c0-8.3-3.1-15.9-8.2-21.7l-42.1-6.1
			C134.3,110.3,128.2,120.6,128.2,132.3z"/>
	</g>
	<path class="st0" d="M189.9,111.2l3.2,0.5l1.3-9.4l-4.6-0.7l-11.3-55.7l-32.5,49.4l-3.5-0.5l-1.1,7.5c-9.8,6.4-16.2,17.4-16.2,30
		c0,19.7,16.1,35.8,35.8,35.8c19.7,0,35.8-16.1,35.8-35.8C196.8,124.4,194.2,117.1,189.9,111.2z M177,53.6l9.4,46l-36.2-5.1
		L177,53.6z M144.7,100.4l0.3-2.2l3.6,0.5l7.7,1.1l18.4,2.7l7.7,1.1l8.7,1.3l-0.5,3.5l-3.5-0.5l-5.1-0.7l-34-4.9l-3.4-0.5
		L144.7,100.4z M161,165.1c-18.1,0-32.8-14.7-32.8-32.8c0-11.7,6.1-22,15.4-27.8l42.1,6.1c5.1,5.8,8.2,13.4,8.2,21.7
		C193.8,150.4,179.1,165.1,161,165.1z"/>
	<g>
		<path class="st0" d="M179.1,49.1c-3.7,0-6.7-3-6.7-6.7s3-6.7,6.7-6.7s6.7,3,6.7,6.7S182.8,49.1,179.1,49.1z M179.1,38.6
			c-2.1,0-3.8,1.7-3.8,3.8c0,2.1,1.7,3.8,3.8,3.8s3.8-1.7,3.8-3.8C182.9,40.3,181.2,38.6,179.1,38.6z"/>
	</g>
</g>
<g>
	<g>
		<g>
			<rect x="66.1" y="81" class="st0" width="0.6" height="20.5"/>
		</g>
		<g>
			<rect x="56.2" y="90.9" class="st0" width="20.5" height="0.6"/>
		</g>
	</g>
	<g>
		<g>
			
				<rect x="56.2" y="90.9" transform="matrix(0.7071 -0.7071 0.7071 0.7071 -45.0766 73.691)" class="st0" width="20.5" height="0.6"/>
		</g>
		<g>
			
				<rect x="66.1" y="81" transform="matrix(0.7071 -0.7071 0.7071 0.7071 -45.0766 73.691)" class="st0" width="0.6" height="20.5"/>
		</g>
	</g>
</g>
<g>
	<g>
		<g>
			<rect x="258.3" y="81" class="st0" width="0.6" height="20.5"/>
		</g>
		<g>
			<rect x="248.4" y="90.9" class="st0" width="20.5" height="0.6"/>
		</g>
	</g>
	<g>
		<g>
			
				<rect x="248.4" y="90.9" transform="matrix(0.7071 -0.7071 0.7071 0.7071 11.2209 209.6053)" class="st0" width="20.5" height="0.6"/>
		</g>
		<g>
			
				<rect x="258.3" y="81" transform="matrix(0.7071 -0.7071 0.7071 0.7071 11.2209 209.6053)" class="st0" width="0.6" height="20.5"/>
		</g>
	</g>
</g>
<g>
	<g>
		<g>
			<rect x="115.3" y="40" class="st0" width="0.6" height="20.5"/>
		</g>
		<g>
			<rect x="105.4" y="49.9" class="st0" width="20.5" height="0.6"/>
		</g>
	</g>
	<g>
		<g>
			
				<rect x="105.4" y="49.9" transform="matrix(0.7071 -0.7071 0.7071 0.7071 -1.6646 96.4833)" class="st0" width="20.5" height="0.6"/>
		</g>
		<g>
			
				<rect x="115.3" y="40" transform="matrix(0.7071 -0.7071 0.7071 0.7071 -1.6646 96.4833)" class="st0" width="0.6" height="20.5"/>
		</g>
	</g>
</g>
<g>
	<g>
		<g>
			<rect x="216.5" y="40" class="st0" width="0.6" height="20.5"/>
		</g>
		<g>
			<rect x="206.5" y="49.9" class="st0" width="20.5" height="0.6"/>
		</g>
	</g>
	<g>
		<g>
			
				<rect x="206.5" y="49.9" transform="matrix(0.7071 -0.7071 0.7071 0.7071 27.9605 168.0046)" class="st0" width="20.5" height="0.6"/>
		</g>
		<g>
			
				<rect x="216.5" y="40" transform="matrix(0.7071 -0.7071 0.7071 0.7071 27.9605 168.0046)" class="st0" width="0.6" height="20.5"/>
		</g>
	</g>
</g>
<g>
	<g>
		<g>
			<rect x="43" y="150.6" class="st0" width="0.6" height="20.5"/>
		</g>
		<g>
			<rect x="33" y="160.5" class="st0" width="20.5" height="0.6"/>
		</g>
	</g>
	<g>
		<g>
			
				<rect x="33" y="160.5" transform="matrix(0.7071 -0.7071 0.7071 0.7071 -101.0434 77.7218)" class="st0" width="20.5" height="0.6"/>
		</g>
		<g>
			
				<rect x="43" y="150.6" transform="matrix(0.7071 -0.7071 0.7071 0.7071 -101.0434 77.7218)" class="st0" width="0.6" height="20.5"/>
		</g>
	</g>
</g>
<g>
	<g>
		<g>
			<rect x="278.8" y="150.6" class="st0" width="0.6" height="20.5"/>
		</g>
		<g>
			<rect x="268.9" y="160.5" class="st0" width="20.5" height="0.6"/>
		</g>
	</g>
	<g>
		<g>
			
				<rect x="268.9" y="160.5" transform="matrix(0.7071 -0.7071 0.7071 0.7071 -31.9693 244.4813)" class="st0" width="20.5" height="0.6"/>
		</g>
		<g>
			
				<rect x="278.8" y="150.6" transform="matrix(0.7071 -0.7071 0.7071 0.7071 -31.9693 244.4813)" class="st0" width="0.6" height="20.5"/>
		</g>
	</g>
</g>
<g>
	<path class="st0" d="M20.4,239.7C7.4,216,0.5,189.1,0.5,161.9c0-89,72.4-161.4,161.4-161.4c89,0,161.4,72.4,161.4,161.4
		c0,26.9-6.7,53.5-19.5,77l-0.9-0.5c12.7-23.3,19.4-49.8,19.4-76.5c0-88.5-72-160.4-160.4-160.4C73.5,1.5,1.5,73.5,1.5,161.9
		c0,27,6.9,53.8,19.8,77.3L20.4,239.7z"/>
</g>
</svg>
