<?xml version="1.0" encoding="utf-8"?>
<!-- Generator: Adobe Illustrator 18.1.1, SVG Export Plug-In . SVG Version: 6.00 Build 0)  -->
<!DOCTYPE svg PUBLIC "-//W3C//DTD SVG 1.1//EN" "http://www.w3.org/Graphics/SVG/1.1/DTD/svg11.dtd">
<svg version="1.1" xmlns="http://www.w3.org/2000/svg" xmlns:xlink="http://www.w3.org/1999/xlink" x="0px" y="0px"
	 viewBox="0 0 180 180" enable-background="new 0 0 180 180" xml:space="preserve">
<g id="Layer_1" display="none">
	<g display="inline">
		<circle fill="none" stroke="#FFFFFF" stroke-width="1.5" stroke-miterlimit="10" cx="89" cy="91" r="75.5"/>
		<path fill="none" d="M112.1,130.3v-2.4c-1.4,0.9-2.8,1.7-4.3,2.4H112.1z"/>
		<path fill="none" d="M93.6,136.8h-8.2c-1.1,0-2.1,0.9-2.1,2.1c0,1.1,0.9,2.1,2.1,2.1h8.2c1.1,0,2.1-0.9,2.1-2.1
			C95.7,137.7,94.7,136.8,93.6,136.8z"/>
		<path fill="none" d="M66.9,130.3h3.4c-1.2-0.6-2.3-1.2-3.4-1.8V130.3z"/>
		<path fill="none" stroke="#FFFFFF" stroke-width="1.5" stroke-miterlimit="10" d="M46.3,91c0,12.2,5.1,23.3,13.2,31.2V59.8
			C51.4,67.7,46.3,78.8,46.3,91z"/>
		<path fill="none" stroke="#FFFFFF" stroke-width="1.5" stroke-miterlimit="10" d="M131.8,91c0-11.7-4.7-22.4-12.2-30.2v60.4
			C127.1,113.4,131.8,102.7,131.8,91z"/>
		<path fill="#FFFFFF" d="M114.1,42.4H64.8c-3.4,0-6.2,2.8-6.2,6.2v5.1v6.1v62.4v10.2v1.8v5.1c0,3.4,2.8,6.2,6.2,6.2h49.3
			c3.4,0,6.2-2.8,6.2-6.2v-5.1v-1.8v-11.1V60.8v-7.1v-5.1C120.3,45.2,117.5,42.4,114.1,42.4z M93.6,140.9h-8.2
			c-1.1,0-2.1-0.9-2.1-2.1c0-1.1,0.9-2.1,2.1-2.1h8.2c1.1,0,2.1,0.9,2.1,2.1C95.7,140,94.7,140.9,93.6,140.9z M112.1,127.9v2.4h-4.3
			H70.3h-3.4v-1.8V55.7h45.2V127.9z"/>
		<g>
			<polygon fill="#FFFFFF" points="105,96 105,90 84,90 84,80 74,80 74,96 			"/>
			<rect x="95" y="80" fill="#FFFFFF" width="10" height="9"/>
			<rect x="85" y="80" fill="#FFFFFF" width="9" height="9"/>
			<rect x="84" y="97" fill="#FFFFFF" width="10" height="8"/>
			<rect x="95" y="97" fill="#FFFFFF" width="10" height="8"/>
			<rect x="74" y="97" fill="#FFFFFF" width="8" height="8"/>
		</g>
	</g>
</g>
<g id="Layer_2">
	<path fill="none" stroke="#FFFFFF" stroke-width="2" stroke-miterlimit="10" d="M143,110H16.9c-1.6,0-3-1.3-3-3V76.2
		c0-1.7,1.3-3,3-3H143c1.6,0,3,1.3,3,3V107C146,108.7,144.6,110,143,110z"/>
	<g>
		<path fill="#FFFFFF" d="M33,96.4l0.2-4l-3.3,2.1l-1.1-1.9l3.5-1.8l-3.5-1.8l1.1-2l3.3,2.1l-0.2-4h2.3l-0.2,4l3.3-2.1l1.2,2
			L36,90.8l3.5,1.8l-1.2,1.9l-3.3-2.1l0.2,4H33z"/>
		<path fill="#FFFFFF" d="M46.6,96.4l0.2-4l-3.3,2.1l-1.1-1.9l3.5-1.8l-3.5-1.8l1.1-2l3.3,2.1l-0.2-4h2.3l-0.2,4l3.3-2.1l1.2,2
			l-3.5,1.8l3.5,1.8L52,94.6l-3.3-2.1l0.2,4H46.6z"/>
		<path fill="#FFFFFF" d="M60.1,96.4l0.2-4L57,94.6l-1.1-1.9l3.5-1.8l-3.5-1.8l1.1-2l3.3,2.1l-0.2-4h2.3l-0.2,4l3.3-2.1l1.2,2
			l-3.5,1.8l3.5,1.8l-1.2,1.9l-3.3-2.1l0.2,4H60.1z"/>
		<path fill="#FFFFFF" d="M73.7,96.4l0.2-4l-3.3,2.1l-1.1-1.9l3.5-1.8l-3.5-1.8l1.1-2l3.3,2.1l-0.2-4H76l-0.2,4l3.3-2.1l1.2,2
			l-3.5,1.8l3.5,1.8l-1.2,1.9l-3.3-2.1l0.2,4H73.7z"/>
		<path fill="#FFFFFF" d="M87.3,96.4l0.2-4l-3.3,2.1L83,92.6l3.5-1.8L83,89.1l1.1-2l3.3,2.1l-0.2-4h2.3l-0.2,4l3.3-2.1l1.2,2
			l-3.5,1.8l3.5,1.8l-1.2,1.9l-3.3-2.1l0.2,4H87.3z"/>
	</g>
	<g>
		
			<rect x="48.3" y="85.9" transform="matrix(-0.7071 0.7071 -0.7071 -0.7071 259.6039 71.3352)" fill="#FFFFFF" width="133.4" height="7.2"/>
		
			<rect x="48.3" y="85.9" transform="matrix(-0.7071 -0.7071 0.7071 -0.7071 133.1261 234.0093)" fill="#FFFFFF" width="133.4" height="7.2"/>
	</g>
</g>
</svg>
