<?xml version="1.0" encoding="utf-8"?>
<!-- Generator: Adobe Illustrator 18.1.1, SVG Export Plug-In . SVG Version: 6.00 Build 0)  -->
<!DOCTYPE svg PUBLIC "-//W3C//DTD SVG 1.1//EN" "http://www.w3.org/Graphics/SVG/1.1/DTD/svg11.dtd">
<svg version="1.1" id="Layer_2" xmlns="http://www.w3.org/2000/svg" xmlns:xlink="http://www.w3.org/1999/xlink" x="0px" y="0px"
	 viewBox="0 -194.9 960 754.9" enable-background="new 0 -194.9 960 754.9" xml:space="preserve">
<path fill="none" stroke="#FFFFFF" stroke-width="9" stroke-miterlimit="10" d="M712.4-45.7c0,0-15.5-122.3-237.1-118.6
	C253.8-168,238.2-45.7,238.2-45.7l-17.5,176.9c81.7,20.7,254.6,20.7,254.6,20.7s173,0,254.6-20.7L712.4-45.7z"/>
<path fill="none" stroke="#FFFFFF" stroke-width="9" stroke-miterlimit="10" d="M693.4,191.6v-54c-108.1,22.3-218.1,14.9-218.1,14.9
	s-110,7.4-218.1-14.9v54c0,0-87.6-29.8-63.4,80.1c17.9,81.4,80.1,87.6,80.1,87.6S331.7,542,475.3,542c150,0,201.3-182.7,201.3-182.7
	s62.2-6.2,80.1-87.6C781,161.8,693.4,191.6,693.4,191.6z"/>
<path fill="#FFFFFF" d="M553.3,59.3h-53.9v53.9h-48.2V59.3h-53.9V11.1h53.9v-53.9h48.2v53.9h53.9V59.3z"/>
<path fill="#FFFFFF" d="M734.6,131.2l24.2,87.3c0,0-6.9-41.5-64.9-26.9v-54L734.6,131.2z"/>
<path fill="#FFFFFF" d="M256.8,136.7v54c-58-14.6-64.9,26.9-64.9,26.9l24.2-87.3L256.8,136.7z"/>
</svg>
