<?xml version="1.0" encoding="utf-8"?>
<!-- Generator: Adobe Illustrator 19.1.0, SVG Export Plug-In . SVG Version: 6.00 Build 0)  -->
<svg version="1.1" id="Layer_1" xmlns="http://www.w3.org/2000/svg" xmlns:xlink="http://www.w3.org/1999/xlink" x="0px" y="0px"
	 viewBox="0 0 180.9 153.3" style="enable-background:new 0 0 180.9 153.3;" xml:space="preserve">
<style type="text/css">
	.st0{fill:#FFFFFF;}
</style>
<g>
	<path class="st0" d="M180.9,30.2c-17.2-1.4-34.3-2.9-51.4-4.3l3.4,11.7c11.8,1,23.7,2,35.6,3c-1.9,23.3-3.8,45.8-5.7,68.4
		c-0.3,0.1-0.7,0.3-1,0.4c-1.8-3.9-3.6-7.8-5.4-11.7c-2.6-5.5-3-6-6.9-3.5l8,27.3l-82.2,23.9c31.8,2.7,63.4,5.3,95.2,7.9
		C174.1,112,177.5,71.2,180.9,30.2z"/>
</g>
<g>
	<path class="st0" d="M45.5,54c0,5.6-4.3,9.8-9.8,9.7c-5.5-0.1-9.7-4.6-9.5-10.1c0.2-5.4,4.3-9.4,9.6-9.4
		C41.3,44.2,45.5,48.4,45.5,54z"/>
	<path class="st0" d="M118.7,0c11.4,39.6,22.7,78.9,34.1,118.7c-39.6,11.4-78.8,22.7-118.7,34.2C22.8,113.3,11.5,74,0,34.2
		C39.8,22.7,79.1,11.4,118.7,0z M110.9,14.1C78.4,23.5,46.4,32.7,14.1,42c6.5,22.6,12.9,44.7,19.5,67.7c6.4-8.8,11.2-17,13.4-26.6
		c0.9-4.1,1.9-8.1,3.4-12c0.7-1.7,2.7-4,4.3-4.1c6.2-0.6,9.7-3.6,11.4-9.4c1-3.5,3.4-3.8,6.2-1.9c1.1,0.7,2.2,1.5,3.2,2.4
		c7,6.7,13.9,13.4,20.7,20.2c0.8,0.8,1.5,2.6,1.1,3.4c-2.6,6.1-4.9,12.4-8.6,17.8c-1.7,2.5-6.4,2.9-9.7,4.2c-1.1,0.4-2.2,0.6-3.4,1
		c-13.2,3.8-26.5,7.6-40.2,11.6c0.8,2.7,1.5,5,2.3,7.7c32.4-9.3,64.4-18.5,96.7-27.8c-0.9-2.8-1.6-5.1-2.4-7.6
		c-12.4,3.5-24.4,7-36.4,10.4c2-5.8,4.1-11.1,5.8-16.6c1.1-3.6,1.7-7.2,6.5-7.5c1.1-0.1,2.3-1.3,3-2.3c3.8-5.3,4-5.4,8.8-0.7
		c3.1,3,6.1,6,9.2,9c0.3-0.2,0.5-0.5,0.8-0.7"/>
</g>
</svg>
