<?xml version="1.0" encoding="utf-8"?>
<!-- Generator: Adobe Illustrator 18.1.1, SVG Export Plug-In . SVG Version: 6.00 Build 0)  -->
<!DOCTYPE svg PUBLIC "-//W3C//DTD SVG 1.1//EN" "http://www.w3.org/Graphics/SVG/1.1/DTD/svg11.dtd">
<svg version="1.1" id="Layer_1" xmlns="http://www.w3.org/2000/svg" xmlns:xlink="http://www.w3.org/1999/xlink" x="0px" y="0px"
	 viewBox="0 0 180 180" enable-background="new 0 0 180 180" xml:space="preserve">
<g>
	<circle fill="none" stroke="#FFFFFF" stroke-width="1.5" stroke-miterlimit="10" cx="89" cy="91" r="75.5"/>
	<path fill="none" d="M112.1,130.3v-2.4c-1.4,0.9-2.8,1.7-4.3,2.4H112.1z"/>
	<path fill="none" d="M93.6,136.8h-8.2c-1.1,0-2.1,0.9-2.1,2.1c0,1.1,0.9,2.1,2.1,2.1h8.2c1.1,0,2.1-0.9,2.1-2.1
		C95.7,137.7,94.7,136.8,93.6,136.8z"/>
	<path fill="none" d="M66.9,130.3h3.4c-1.2-0.6-2.3-1.2-3.4-1.8V130.3z"/>
	<path fill="none" stroke="#FFFFFF" stroke-width="1.5" stroke-miterlimit="10" d="M46.3,91c0,12.2,5.1,23.3,13.2,31.2V59.8
		C51.4,67.7,46.3,78.8,46.3,91z"/>
	<path fill="none" stroke="#FFFFFF" stroke-width="1.5" stroke-miterlimit="10" d="M131.8,91c0-11.7-4.7-22.4-12.2-30.2v60.4
		C127.1,113.4,131.8,102.7,131.8,91z"/>
	<path fill="#FFFFFF" d="M114.1,42.4H64.8c-3.4,0-6.2,2.8-6.2,6.2v5.1v6.1v62.4v10.2v1.8v5.1c0,3.4,2.8,6.2,6.2,6.2h49.3
		c3.4,0,6.2-2.8,6.2-6.2v-5.1v-1.8v-11.1V60.8v-7.1v-5.1C120.3,45.2,117.5,42.4,114.1,42.4z M93.6,140.9h-8.2
		c-1.1,0-2.1-0.9-2.1-2.1c0-1.1,0.9-2.1,2.1-2.1h8.2c1.1,0,2.1,0.9,2.1,2.1C95.7,140,94.7,140.9,93.6,140.9z M112.1,127.9v2.4h-4.3
		H70.3h-3.4v-1.8V55.7h45.2V127.9z"/>
	<g>
		<polygon fill="#FFFFFF" points="105,96 105,90 84,90 84,80 74,80 74,96 		"/>
		<rect x="95" y="80" fill="#FFFFFF" width="10" height="9"/>
		<rect x="85" y="80" fill="#FFFFFF" width="9" height="9"/>
		<rect x="84" y="97" fill="#FFFFFF" width="10" height="8"/>
		<rect x="95" y="97" fill="#FFFFFF" width="10" height="8"/>
		<rect x="74" y="97" fill="#FFFFFF" width="8" height="8"/>
	</g>
</g>
</svg>
