<?xml version="1.0" encoding="utf-8"?>
<!-- Generator: Adobe Illustrator 18.1.1, SVG Export Plug-In . SVG Version: 6.00 Build 0)  -->
<!DOCTYPE svg PUBLIC "-//W3C//DTD SVG 1.1//EN" "http://www.w3.org/Graphics/SVG/1.1/DTD/svg11.dtd">
<svg version="1.1" id="Layer_3" xmlns="http://www.w3.org/2000/svg" xmlns:xlink="http://www.w3.org/1999/xlink" x="0px" y="0px"
	 viewBox="0 0 180 180" enable-background="new 0 0 180 180" xml:space="preserve">
<g>
	<rect x="144.4" y="14.4" fill="#FFFFFF" width="8.1" height="44.2"/>
	<rect x="126.4" y="32.5" fill="#FFFFFF" width="44.2" height="8.1"/>
</g>
<path fill-rule="evenodd" clip-rule="evenodd" fill="none" stroke="#FFFFFF" stroke-width="1.8" stroke-miterlimit="10" d="
	M130,161.1H49.8c-4.1,0-7.5-3.4-7.5-7.5V98.3c0-4.1,3.4-7.5,7.5-7.5h10V70.7c0-16.6,13.5-30.1,30.1-30.1c16.6,0,30.1,13.5,30.1,30.1
	v20.1h10c4.1,0,7.5,3.4,7.5,7.5v55.2C137.5,157.7,134.1,161.1,130,161.1z M109.7,72.4c0-10.9-8.9-19.8-19.8-19.8
	c-10.9,0-19.8,8.9-19.8,19.8V90h39.6V72.4z"/>
</svg>
