<?xml version="1.0" encoding="utf-8"?>
<!-- Generator: Adobe Illustrator 19.2.0, SVG Export Plug-In . SVG Version: 6.00 Build 0)  -->
<svg version="1.1" id="Layer_1" xmlns="http://www.w3.org/2000/svg" xmlns:xlink="http://www.w3.org/1999/xlink" x="0px" y="0px"
	 viewBox="0 0 371.2 98.5" style="enable-background:new 0 0 371.2 98.5;" xml:space="preserve">
<style type="text/css">
	.st0{fill:#0075EF;}
	.st1{fill:#FFFFFF;}
	.st2{enable-background:new    ;}
</style>
<path class="st0" d="M322,98.5H49.2C22.1,98.5,0,76.4,0,49.2S22.1,0,49.2,0H322c27.2,0,49.2,22.1,49.2,49.2S349.2,98.5,322,98.5z
	 M49.2,1.5C22.9,1.5,1.5,22.9,1.5,49.2S22.9,97,49.2,97H322c26.3,0,47.8-21.4,47.8-47.8S348.3,1.5,322,1.5H49.2z"/>
<circle class="st0" cx="321.5" cy="49.2" r="38"/>
<polygon class="st1" points="315.5,28.3 315.5,49.7 315.5,71 338.6,49.7 "/>
<g class="st2">
	<path class="st0" d="M54.4,42.7l-4.8,17.6h-2.9l-6.2-21.8h3l4.8,18.2l5-18.2h2.3l5,18.2l4.8-18.2h3l-6.2,21.8h-2.9L54.4,42.7z"/>
	<path class="st0" d="M83.6,55.5H72.7l-1.9,4.8h-3.1l8.8-21.8h3.4l8.8,21.8h-3.1L83.6,55.5z M73.5,53.1h9.3l-4.6-11.8L73.5,53.1z"/>
	<path class="st0" d="M94.7,40.9h-6.9v-2.4h16.6v2.4h-6.9v19.4h-2.7V40.9z"/>
	<path class="st0" d="M106.1,49.5c0-6.7,4.9-11.3,11.2-11.3c3.9,0,6.5,1.9,8.3,4.3l-2.3,1.3c-1.2-1.8-3.5-3.2-6-3.2
		c-4.8,0-8.4,3.7-8.4,8.9c0,5.2,3.6,8.9,8.4,8.9c2.5,0,4.7-1.3,6-3.2l2.3,1.3c-1.8,2.5-4.5,4.3-8.3,4.3
		C111.1,60.7,106.1,56.2,106.1,49.5z"/>
	<path class="st0" d="M144.6,50.3h-12.8v10h-2.7V38.5h2.7v9.4h12.8v-9.4h2.7v21.8h-2.7V50.3z"/>
	<path class="st0" d="M158.6,38.5h3.1l7.4,18.9l7.4-18.9h3.1l-8.8,21.8h-3.4L158.6,38.5z"/>
	<path class="st0" d="M182.4,38.5h2.7v21.8h-2.7V38.5z"/>
	<path class="st0" d="M190.3,38.5h7.5c6.8,0,11.2,4.7,11.2,10.9c0,6.2-4.4,10.9-11.2,10.9h-7.5V38.5z M197.7,57.9
		c5.3,0,8.4-3.8,8.4-8.5c0-4.7-3-8.5-8.4-8.5H193v17H197.7z"/>
	<path class="st0" d="M213.2,38.5h14.3v2.4h-11.6v7h11.4v2.4h-11.4v7.5h11.6v2.4h-14.3V38.5z"/>
	<path class="st0" d="M241.7,38.2c6.4,0,10.8,4.8,10.8,11.3c0,6.4-4.4,11.3-10.8,11.3c-6.5,0-10.8-4.8-10.8-11.3
		C230.9,43,235.3,38.2,241.7,38.2z M241.7,40.6c-4.9,0-8,3.8-8,8.9c0,5.1,3.1,8.9,8,8.9c4.9,0,8-3.8,8-8.9
		C249.8,44.3,246.6,40.6,241.7,40.6z"/>
</g>
</svg>
